<?xml version="1.0" encoding="utf-8"?>
<svg viewBox="0 0 922 263" xmlns="http://www.w3.org/2000/svg">
  <path d="M 374.22 230.44 C 373.887 230.426 372.405 230.412 372.14 230.4 C 350.94 229.393 329.803 228.5 308.73 227.72 C 301.957 227.473 295.303 227.083 288.77 226.55 C 266.17 224.717 243.567 222.897 220.96 221.09 C 200.08 219.42 179.19 216.45 158.41 213.76 C 150.977 212.8 144.383 211.833 138.63 210.86 C 127.863 209.033 117.137 207.003 106.45 204.77 C 104.69 204.4 102.59 204.055 101 203.685 C 86.58 200.318 72.517 196.637 58.45 192.01 C 49.99 189.23 42.39 184.97 34.53 180.79 C 30.27 178.52 24.994 174.403 23.856 168.787 C 23.473 166.899 24.103 163.366 25.604 161.119 C 26.646 159.559 28 158.053 29.58 156.74 C 38.5 149.3 47.98 145.81 59.77 140.96 C 59.83 140.94 61.434 140.353 61.741 140.253 C 74.728 135.886 87.941 132.35 101.381 129.643 C 111.454 127.616 121.66 125.903 131.76 123.95 C 133.4 123.63 150.3 121.443 157.08 120.37 C 157.407 120.317 163.41 119.65 165.05 119.44 C 184.5 116.89 204.04 115.68 223.55 113.8 C 230.677 113.113 237.32 112.603 243.48 112.27 C 261.98 111.27 280.05 110.23 299 109.77 C 311.853 109.463 324.687 108.783 337.5 107.73 C 344.193 107.183 350.677 105.723 356.95 103.35 C 357.08 103.307 358.237 102.807 358.35 102.74 C 363.043 99.98 366.457 95.733 368.59 90 C 373.16 77.72 380.75 63.96 389.45 54.15 C 396.47 46.25 404.593 39.59 413.82 34.17 C 416.01 32.88 425.03 28.17 426.77 27.51 C 445.003 20.623 463.577 19.043 482.49 22.77 C 488.06 23.87 493.9 26.19 499.63 28.24 C 506.11 30.55 512.3 34.81 518.32 38.17 C 522.44 40.47 527.92 44.997 534.76 51.75 C 541.493 58.397 548.653 67.397 556.24 78.75 C 557.727 80.983 560.523 84.277 564.63 88.63 C 567.903 92.103 571.37 94.827 575.03 96.8 C 577.55 98.16 580.72 99.457 584.54 100.69 C 590.36 102.56 596.38 102.94 602.28 104.24 C 604.827 104.8 607.403 105.2 610.01 105.44 C 632.57 107.547 655.157 109.37 677.77 110.91 C 685.197 111.417 691.84 111.937 697.7 112.47 C 728.62 115.27 748.22 117.283 756.5 118.51 C 761.307 119.223 765.22 119.78 768.24 120.18 C 773.607 120.88 777.51 121.44 779.95 121.86 C 790.31 123.64 800.677 125.37 811.05 127.05 C 811.757 127.163 818.99 128.83 820.55 129.15 C 843.43 133.88 865.08 139.99 884.5 150.3 C 889.58 153 895.652 156.615 897.757 162.501 C 898.395 164.286 897.308 167.67 896.638 169.9 C 896.051 171.853 895.378 173.298 894.338 174.371 C 888.628 180.241 883.71 183.46 875.65 186.67 C 870.003 188.917 864.363 191.183 858.73 193.47 C 854.25 195.28 849.97 196.21 845.33 197.28 C 843.85 197.62 835.4 199.652 835.06 199.745 C 822.24 203.338 809.267 205.983 796.14 208.09 C 783.967 210.043 777.383 211.103 776.39 211.27 C 757.277 214.517 738.067 217.023 718.76 218.79 C 712.307 219.383 706.553 219.983 701.5 220.59 C 693.527 221.543 687.777 222.17 684.25 222.47 C 658.897 224.617 633.928 226.814 608.521 228.074 C 604.121 228.284 599.3 228.65 594.86 228.79 C 562.327 229.87 529.79 230.79 497.25 231.55 C 491.423 231.69 484.757 231.69 477.25 231.55 C 467.583 231.377 457.917 231.337 448.25 231.43 C 429.2 231.61 410.46 231.16 391.57 231.06 C 386.4 231.04 377.755 230.585 374.22 230.44 Z M 513.54 69.86 C 512.587 68.607 511.173 67.317 509.3 65.99 C 495.853 56.503 481.237 51.273 465.45 50.3 C 454.62 49.64 445.36 52.25 433.76 56.62 C 432.407 57.127 421.92 63.97 419.07 66.51 C 406.11 78.07 395.79 93.68 391.82 110.7 C 391.653 111.427 390.37 119.42 390.26 121.62 C 389.567 135.147 391.98 148.1 397.5 160.48 C 397.613 160.733 403.002 171.065 406.205 175.279 C 408.812 178.708 412.13 182.84 416.21 184.34 C 418.563 185.2 422.41 185.62 427.75 185.6 C 444.397 185.533 461.043 185.557 477.69 185.67 C 488.97 185.75 502.53 184.72 515 184.95 C 515.387 184.957 515.559 184.729 515.79 184.42 C 516.578 183.366 518.559 181.369 518.76 181.09 C 519.191 180.493 519.712 179.864 520.262 179.12 C 523.633 174.564 526.951 171.893 530.158 166.277 C 531.115 164.601 531.298 164.002 532.07 162.6 C 534.485 158.212 536.97 152.58 538.82 147.03 C 539.81 144.04 539.68 140.73 540.31 137.52 C 540.383 137.14 540.56 136.82 540.84 136.56 C 542.327 135.16 543.443 133.493 544.19 131.56 C 544.262 131.383 544.467 131.299 544.65 131.37 L 546.5 132.12 C 546.687 132.2 546.743 132.333 546.67 132.52 C 546.217 133.62 545.8 135.69 545.42 138.73 C 544.94 142.517 543.037 148.693 539.71 157.26 C 536.697 165.013 531.61 172.817 524.45 180.67 C 523.523 181.69 522.727 182.71 522.06 183.73 C 521.712 184.249 522.065 184.948 522.694 184.99 C 522.729 184.992 522.765 184.992 522.8 184.99 C 538.993 183.823 555.143 182.987 571.25 182.48 C 582.11 182.14 595.7 180.37 608.45 179.68 C 612.083 179.48 615.717 179.257 619.35 179.01 C 629.83 178.31 641.01 176.63 651.87 175.36 C 664.89 173.84 677.61 171.36 690.49 169.29 C 692.983 168.89 698.567 167.653 707.24 165.58 C 717.347 163.16 725.69 160.46 732.27 157.48 C 737.39 155.15 744.81 151.54 742.22 144.41 C 739.63 137.28 722.09 132.7 715.46 130.91 C 694.487 125.237 673.163 121.55 651.49 119.85 C 644.657 119.317 639.483 118.847 635.97 118.44 C 634.1 118.22 632.2 118.56 630.08 118.08 C 627.98 117.613 626.563 117.363 625.83 117.33 C 605.563 116.35 588.24 115.15 573.86 113.73 C 572.253 113.577 570.923 113.477 569.87 113.43 C 566.18 113.28 562.74 112.32 559.18 111.73 C 556.08 111.217 553.853 110.747 552.5 110.32 C 543.8 107.57 536.87 102.46 532.83 94.14 C 528.403 85.013 522.34 77.077 514.64 70.33 C 514.473 70.183 514.303 70.117 514.13 70.13 C 513.883 70.143 513.687 70.053 513.54 69.86 Z M 371.69 125.25 C 371.77 123.477 371.74 119.45 371.74 119.45 C 371.744 119.223 371.71 119.03 371.487 119.03 C 371.45 119.03 368.01 118.91 366.33 118.84 C 331.15 117.353 296.05 118.397 261.03 121.97 C 243.903 123.723 230.893 125.587 222 127.56 C 209.93 130.24 199.69 133 188.98 138.18 C 185.61 139.81 183.45 142.53 180.95 145.23 C 180.742 145.457 180.616 145.746 180.59 146.05 C 179.14 159.99 223.67 167.75 232.75 169.56 C 239.33 170.873 245.533 171.95 251.36 172.79 C 274.28 176.097 297.287 178.64 320.38 180.42 C 346.573 182.44 372.687 183.757 398.72 184.37 C 399.121 184.379 399.376 183.945 399.178 183.588 C 399.152 183.54 399.119 183.497 399.08 183.46 C 391.48 176.413 385.363 168.277 380.73 159.05 C 377.497 152.61 375.25 146.447 373.99 140.56 C 373.663 139.007 373.157 136.473 372.47 132.96 C 371.863 129.847 371.603 127.277 371.69 125.25 Z" style="fill: rgb(255, 255, 255);"/>
  <path d="M 544.849 128.698 L 544.062 128.237 C 543.712 128.004 543.626 127.131 543.905 126.666 C 543.997 126.513 544.115 126.433 544.236 126.441 C 545.976 125.787 546.62 127.208 547.026 129.468 C 547.125 130.018 547.073 130.738 546.727 130.824 C 546.606 130.855 546.481 130.791 546.384 130.648 L 545.651 129.519 C 545.411 129.16 545.144 128.887 544.849 128.698 Z" style="fill: rgb(255, 255, 255);"/>
</svg>